<?xml version="1.0" encoding="UTF-8"?>
<svg width="512px" height="331px" viewBox="0 0 512 331" version="1.1" xmlns="http://www.w3.org/2000/svg" xmlns:xlink="http://www.w3.org/1999/xlink">
    <!-- Generator: Sketch 55.1 (78136) - https://sketchapp.com -->
    <title>rain</title>
    <desc>Created with Sketch.</desc>
    <g id="Catalog-Map" stroke="none" stroke-width="1" fill="none" fill-rule="evenodd">
        <g id="rain" fill-rule="nonzero">
            <path d="M304.80998,5.06230986 C291.786431,1.7595493 278.153014,0 264.115767,0 C192.233851,0 131.092604,45.9419557 108.421408,110.059396 L108.421408,110.066608 C49.3405231,110.849545 -2.84217094e-14,159.113529 -2.84217094e-14,220.144547 C-2.84217094e-14,280.935533 49.2807726,330.216306 110.071759,330.216306 L344.28961,330.216306 L304.80998,5.06230986 Z" id="Path" fill="#B9BBBC"></path>
            <path d="M429.200225,165.104032 C429.196105,87.7920322 376.192258,23.1667123 304.80998,5.06230986 C233.328805,23.2110101 180.447549,87.9826157 180.447549,165.110213 C180.447549,255.876378 253.685183,329.527115 344.28961,330.216306 L429.446439,330.216306 C475.040193,330.216306 512,293.255469 512,247.661714 C512,201.471485 474.250044,164.86297 429.200225,165.104032 Z" id="Path" fill="#D4D4D5"></path>
            <ellipse id="Oval" fill="#FF8E9E" transform="translate(205.518907, 197.134848) rotate(0.171887) translate(-205.518907, -197.134848) " cx="205.518907" cy="197.134848" rx="26.2398605" ry="20.895257"></ellipse>
            <ellipse id="Oval" fill="#FF8E9E" transform="translate(347.689672, 197.650969) rotate(-179.828113) translate(-347.689672, -197.650969) " cx="347.689672" cy="197.650969" rx="26.2398605" ry="20.895257"></ellipse>
            <g id="Group" transform="translate(199.855131, 128.772636)" fill="#313D40">
                <path d="M10.8169014,27.8581569 C6.54989135,27.8581569 3.09054326,31.317505 3.09054326,35.5845151 L3.09054326,45.886326 C3.09054326,50.153336 6.54989135,53.6126841 10.8169014,53.6126841 C15.0839115,53.6126841 18.5432596,50.153336 18.5432596,45.886326 L18.5432596,35.5845151 C18.5432596,31.317505 15.0839115,27.8581569 10.8169014,27.8581569 Z" id="Path"></path>
                <path d="M142.68008,27.8581569 C138.41307,27.8581569 134.953722,31.317505 134.953722,35.5845151 L134.953722,45.886326 C134.953722,50.153336 138.41307,53.6126841 142.68008,53.6126841 C146.947091,53.6126841 150.406439,50.153336 150.406439,45.886326 L150.406439,35.5845151 C150.406439,31.317505 146.947091,27.8581569 142.68008,27.8581569 Z" id="Path"></path>
                <path d="M97.0791147,42.006664 C93.229328,40.16367 88.6161771,41.7944467 86.7762736,45.6442334 C85.059992,49.2333843 81.3255855,51.5523219 77.2635815,51.5523219 C73.2015775,51.5523219 69.467171,49.2333843 67.7508893,45.6442334 C65.9099557,41.7944467 61.2957746,40.1667606 57.4480483,42.006664 C53.5982616,43.8475976 51.9695453,48.4607485 53.8104789,52.309505 C58.0795493,61.2370543 67.2852475,67.0050382 77.2635815,67.0050382 C87.2419155,67.0050382 96.4486439,61.2370543 100.716684,52.309505 C102.557618,48.4607485 100.928901,43.8475976 97.0791147,42.006664 L97.0791147,42.006664 Z" id="Path"></path>
                <path d="M25.491831,9.70945674 L12.1097787,1.98309859 C8.41451911,-0.15143662 3.68907847,1.11465594 1.55557344,4.81094567 C-0.57793159,8.50620523 0.688160966,13.2316459 4.38342052,15.3651509 L17.7654728,23.0915091 C18.9821167,23.7940926 20.3110503,24.1278712 21.6214406,24.1278712 C24.29167,24.1278712 26.8887565,22.7422777 28.3196781,20.263662 C30.4542133,16.5684024 29.1881207,11.8429618 25.491831,9.70945674 Z" id="Path"></path>
                <path d="M151.941408,4.81094567 C149.807903,1.11465594 145.082463,-0.15143662 141.387203,1.98309859 L128.005151,9.70945674 C124.309891,11.8429618 123.043799,16.5684024 125.177304,20.263662 C126.608225,22.7422777 129.205312,24.1278712 131.875541,24.1278712 C133.185932,24.1278712 134.514865,23.7940926 135.731509,23.0915091 L149.113561,15.3651509 C152.809851,13.2316459 154.075944,8.50620523 151.941408,4.81094567 Z" id="Path"></path>
            </g>
        </g>
    </g>
</svg>